<?xml version="1.0" encoding="UTF-8" standalone="no"?>
<!DOCTYPE svg PUBLIC "-//W3C//DTD SVG 1.1//EN"
 "http://www.w3.org/Graphics/SVG/1.1/DTD/svg11.dtd">
<!-- Generated by graphviz version 2.50.0 (0)
 -->
<!-- Pages: 1 -->
<svg width="944pt" height="127pt"
 viewBox="0.00 0.00 944.00 127.00" xmlns="http://www.w3.org/2000/svg" xmlns:xlink="http://www.w3.org/1999/xlink">
<g id="graph0" class="graph" transform="scale(1 1) rotate(0) translate(4 123)">
<polygon fill="white" stroke="transparent" points="-4,4 -4,-123 940,-123 940,4 -4,4"/>
<!-- 2386226970696 -->
<g id="node1" class="node">
<title>2386226970696</title>
<polygon fill="none" stroke="black" points="288,-82.5 288,-118.5 450,-118.5 450,-82.5 288,-82.5"/>
<text text-anchor="middle" x="328" y="-96.8" font-family="Times New Roman,serif" font-size="14.00">data 1.0000</text>
<polyline fill="none" stroke="black" points="368,-82.5 368,-118.5 "/>
<text text-anchor="middle" x="409" y="-96.8" font-family="Times New Roman,serif" font-size="14.00">grad 1.0000</text>
</g>
<!-- 2386226971400+ -->
<g id="node7" class="node">
<title>2386226971400+</title>
<ellipse fill="none" stroke="black" cx="513" cy="-72.5" rx="27" ry="18"/>
<text text-anchor="middle" x="513" y="-68.8" font-family="Times New Roman,serif" font-size="14.00">+</text>
</g>
<!-- 2386226970696&#45;&gt;2386226971400+ -->
<g id="edge3" class="edge">
<title>2386226970696&#45;&gt;2386226971400+</title>
<path fill="none" stroke="black" d="M450.13,-84.7C459.51,-82.85 468.67,-81.04 476.94,-79.41"/>
<polygon fill="black" stroke="black" points="477.77,-82.82 486.9,-77.45 476.42,-75.95 477.77,-82.82"/>
</g>
<!-- 2386226971272 -->
<g id="node2" class="node">
<title>2386226971272</title>
<polygon fill="none" stroke="black" points="288,-27.5 288,-63.5 450,-63.5 450,-27.5 288,-27.5"/>
<text text-anchor="middle" x="328" y="-41.8" font-family="Times New Roman,serif" font-size="14.00">data 2.0000</text>
<polyline fill="none" stroke="black" points="368,-27.5 368,-63.5 "/>
<text text-anchor="middle" x="409" y="-41.8" font-family="Times New Roman,serif" font-size="14.00">grad 1.0000</text>
</g>
<!-- 2386226971272&#45;&gt;2386226971400+ -->
<g id="edge6" class="edge">
<title>2386226971272&#45;&gt;2386226971400+</title>
<path fill="none" stroke="black" d="M450.13,-60.74C459.51,-62.52 468.67,-64.26 476.94,-65.83"/>
<polygon fill="black" stroke="black" points="476.43,-69.3 486.9,-67.73 477.73,-62.42 476.43,-69.3"/>
</g>
<!-- 2386226971272* -->
<g id="node3" class="node">
<title>2386226971272*</title>
<ellipse fill="none" stroke="black" cx="225" cy="-45.5" rx="27" ry="18"/>
<text text-anchor="middle" x="225" y="-41.8" font-family="Times New Roman,serif" font-size="14.00">*</text>
</g>
<!-- 2386226971272*&#45;&gt;2386226971272 -->
<g id="edge1" class="edge">
<title>2386226971272*&#45;&gt;2386226971272</title>
<path fill="none" stroke="black" d="M252.04,-45.5C259.63,-45.5 268.38,-45.5 277.6,-45.5"/>
<polygon fill="black" stroke="black" points="277.76,-49 287.76,-45.5 277.76,-42 277.76,-49"/>
</g>
<!-- 2386227406472 -->
<g id="node4" class="node">
<title>2386227406472</title>
<polygon fill="none" stroke="black" points="0,-55.5 0,-91.5 162,-91.5 162,-55.5 0,-55.5"/>
<text text-anchor="middle" x="40" y="-69.8" font-family="Times New Roman,serif" font-size="14.00">data 2.0000</text>
<polyline fill="none" stroke="black" points="80,-55.5 80,-91.5 "/>
<text text-anchor="middle" x="121" y="-69.8" font-family="Times New Roman,serif" font-size="14.00">grad 1.0000</text>
</g>
<!-- 2386227406472&#45;&gt;2386226971272* -->
<g id="edge4" class="edge">
<title>2386227406472&#45;&gt;2386226971272*</title>
<path fill="none" stroke="black" d="M162.13,-57.7C171.51,-55.85 180.67,-54.04 188.94,-52.41"/>
<polygon fill="black" stroke="black" points="189.77,-55.82 198.9,-50.45 188.42,-48.95 189.77,-55.82"/>
</g>
<!-- 2386226972360 -->
<g id="node5" class="node">
<title>2386226972360</title>
<polygon fill="none" stroke="black" points="0,-0.5 0,-36.5 162,-36.5 162,-0.5 0,-0.5"/>
<text text-anchor="middle" x="40" y="-14.8" font-family="Times New Roman,serif" font-size="14.00">data 1.0000</text>
<polyline fill="none" stroke="black" points="80,-0.5 80,-36.5 "/>
<text text-anchor="middle" x="121" y="-14.8" font-family="Times New Roman,serif" font-size="14.00">grad 2.0000</text>
</g>
<!-- 2386226972360&#45;&gt;2386226971272* -->
<g id="edge7" class="edge">
<title>2386226972360&#45;&gt;2386226971272*</title>
<path fill="none" stroke="black" d="M162.13,-33.74C171.51,-35.52 180.67,-37.26 188.94,-38.83"/>
<polygon fill="black" stroke="black" points="188.43,-42.3 198.9,-40.73 189.73,-35.42 188.43,-42.3"/>
</g>
<!-- 2386226971400 -->
<g id="node6" class="node">
<title>2386226971400</title>
<polygon fill="none" stroke="black" points="576,-54.5 576,-90.5 738,-90.5 738,-54.5 576,-54.5"/>
<text text-anchor="middle" x="616" y="-68.8" font-family="Times New Roman,serif" font-size="14.00">data 3.0000</text>
<polyline fill="none" stroke="black" points="656,-54.5 656,-90.5 "/>
<text text-anchor="middle" x="697" y="-68.8" font-family="Times New Roman,serif" font-size="14.00">grad 1.0000</text>
</g>
<!-- 2386226973512 -->
<g id="node8" class="node">
<title>2386226973512</title>
<polygon fill="none" stroke="black" points="774,-54.5 774,-90.5 936,-90.5 936,-54.5 774,-54.5"/>
<text text-anchor="middle" x="814" y="-68.8" font-family="Times New Roman,serif" font-size="14.00">data 3.0000</text>
<polyline fill="none" stroke="black" points="854,-54.5 854,-90.5 "/>
<text text-anchor="middle" x="895" y="-68.8" font-family="Times New Roman,serif" font-size="14.00">grad 1.0000</text>
</g>
<!-- 2386226971400&#45;&gt;2386226973512 -->
<g id="edge5" class="edge">
<title>2386226971400&#45;&gt;2386226973512</title>
<path fill="none" stroke="black" d="M738,-72.5C746.52,-72.5 755.23,-72.5 763.86,-72.5"/>
<polygon fill="black" stroke="black" points="763.93,-76 773.93,-72.5 763.93,-69 763.93,-76"/>
</g>
<!-- 2386226971400+&#45;&gt;2386226971400 -->
<g id="edge2" class="edge">
<title>2386226971400+&#45;&gt;2386226971400</title>
<path fill="none" stroke="black" d="M540.04,-72.5C547.63,-72.5 556.38,-72.5 565.6,-72.5"/>
<polygon fill="black" stroke="black" points="565.76,-76 575.76,-72.5 565.76,-69 565.76,-76"/>
</g>
</g>
</svg>
